<svg width="480" height="480" viewBox="0 0 480 480" fill="none" xmlns="http://www.w3.org/2000/svg">
<mask id="mask0_2217_12790" style="mask-type:luminance" maskUnits="userSpaceOnUse" x="0" y="0" width="480" height="480">
<path d="M0 0H480V480H0V0Z" fill="white"/>
</mask>
<g mask="url(#mask0_2217_12790)">
<path d="M208.115 151.78C193.113 97.3583 125.509 79.8272 86.7652 120.499C86.2094 121.083 85.6536 121.677 85.0977 122.281C29.554 182.66 55.7937 331.451 171.713 369.164C287.633 406.877 408.205 338.01 414.979 276.448C421.753 214.886 368.273 195.542 285.278 212.757C238.388 222.483 217.455 185.659 208.115 151.78Z" fill="#FFF8CE"/>
<path d="M304.544 161.089C289.036 163.614 284.737 177.354 296.712 187.103C300.67 190.325 306.323 193.002 314.375 194.338C345.052 199.426 361.329 185.854 349.034 168.257C341.445 157.397 319.915 158.586 304.544 161.089Z" fill="#BBE2F2"/>
<path d="M57.2497 271.051C47.6084 258.643 33.4859 261.448 30.6606 276.63C29.7275 281.647 30.0836 287.89 32.7659 295.6C42.9841 324.969 62.6929 332.762 72.2555 313.543C78.1575 301.679 66.8055 283.348 57.2497 271.051Z" fill="#BBE2F2"/>
<path d="M425.911 283.604C424.483 291.083 430.659 296.382 437.656 293.5C439.97 292.547 442.302 290.71 444.378 287.482C452.285 275.182 448.281 264.63 437.271 265.713C430.477 266.382 427.327 276.192 425.911 283.604Z" fill="#BBE2F2"/>
<path d="M386.702 204.676C394.156 206.232 399.558 200.146 396.796 193.1C395.883 190.772 394.085 188.408 390.892 186.276C378.729 178.161 368.112 181.986 369.006 193.012C369.56 199.817 379.315 203.134 386.702 204.676Z" fill="#BBE2F2"/>
<path d="M205.525 124.637C211.427 129.448 219.024 126.533 219.814 119.005C220.075 116.517 219.567 113.592 217.714 110.231C210.649 97.4284 199.463 95.9377 195.183 106.139C192.542 112.435 199.677 119.868 205.525 124.637Z" fill="#BBE2F2"/>
<path d="M444.392 321.02C456.228 309.121 465.242 295.676 456.275 293.579C447.3 291.48 432.227 314.914 429.601 336.241L426.972 343.282C429.158 327.773 423.844 308.881 416.062 308.102C408.331 307.329 413.011 319.584 419.151 330.063C423.825 338.041 425.057 344.335 425.366 347.587L412.951 380.844C416.341 356.274 407.922 326.463 395.611 325.232C383.342 324.004 390.768 343.449 400.512 360.078C407.876 372.643 409.856 382.583 410.363 387.776L407.888 394.406C408.971 395.017 410.056 395.62 411.146 396.216L425.916 356.649C428.766 354.521 433.092 351.951 439.253 349.867C450.759 345.974 462.324 339.784 455.976 335.302C450.467 331.412 437.518 338.899 428.598 349.466L433.705 335.783C436.009 331.819 439.284 326.155 444.392 321.02Z" fill="#1C31B5"/>
<path d="M71.3009 165.791C72.8359 151.421 71.6407 137.531 64.4887 140.957C57.331 144.386 59.8394 168.248 69.5729 183.988L71.6033 190.133C64.7105 178.539 50.9575 168.716 45.3118 172.388C39.7025 176.036 49.4513 181.743 59.225 185.471C66.6641 188.309 70.8842 191.871 72.8446 193.89L82.435 222.917C71.467 204.587 49.7422 189.106 40.8103 194.915C31.9102 200.704 47.3786 209.76 62.8865 215.674C74.6052 220.145 81.2935 225.752 84.4327 228.966L86.345 234.754C87.401 234.58 88.4551 234.399 89.5082 234.212L78.0986 199.679C78.8657 196.714 80.3854 192.655 83.3998 187.934C89.0282 179.119 93.4577 168.727 86.779 169.138C80.9825 169.496 76.3217 181.504 76.027 193.409L72.0814 181.467C71.4919 177.563 70.6385 171.994 71.3009 165.791Z" fill="#1C31B5"/>
<path d="M364.497 360.546C364.647 361.361 364.822 362.248 365.025 363.194V363.197C367.157 373.105 372.389 389.326 384.16 392.515C384.16 392.515 377.753 359.103 400.591 350.402C423.43 341.7 420.904 333.414 419.599 318.665C418.293 303.917 413.246 301.104 429.093 287.289C444.94 273.474 441.909 252.897 441.909 252.897C441.909 252.897 426.913 276.392 410.894 276.936C394.877 277.482 392.071 291.156 392.754 301.326C393.437 311.493 379.833 312.644 372.472 318.541C365.112 324.441 363.725 355.413 363.725 355.413C363.725 355.413 363.927 357.438 364.497 360.546Z" fill="#009CF8"/>
<path d="M364.498 360.546C364.647 361.361 364.822 362.248 365.026 363.194C366.667 358.222 368.978 354.046 371.14 350.842C376.263 343.251 383.478 337.016 389.966 334.569C400.298 330.676 405.344 320.542 406.321 301.711C406.887 290.779 418.323 284.322 418.441 284.26C418.775 284.074 418.897 283.651 418.712 283.318C418.525 282.982 418.104 282.859 417.77 283.045C417.271 283.321 405.542 289.929 404.935 301.638C403.991 319.843 399.224 329.601 389.478 333.274C382.632 335.853 375.346 342.13 369.99 350.065C368.097 352.869 366.093 356.4 364.498 360.546Z" fill="#FBBA58"/>
<path d="M111.703 392.334H127.752C119.08 390.9 97.5809 381.671 95.6637 363.162C93.2359 339.72 84.8877 340.014 70.8228 337.562C56.7568 335.111 52.8823 339.113 43.9514 320.914C35.0215 302.714 15.0957 300.421 15.0957 300.421C15.0957 300.421 33.256 320.236 29.7808 335.295C26.3047 350.354 38.3479 356.368 47.9911 358.261C57.6352 360.154 55.3235 373.114 58.9879 381.438C60.6611 385.236 67.5059 389.174 74.4554 392.334H111.703Z" fill="#FBBA58"/>
<path d="M76.9424 369.258C77.6432 376.278 81.68 384.628 87.7414 391.591C87.9536 391.835 88.1753 392.083 88.4019 392.334H90.2278C89.7056 391.784 89.2102 391.24 88.7504 390.712C82.952 384.051 78.9372 375.779 78.271 369.125C77.2131 358.531 69.0262 351.311 51.7241 345.717C41.6816 342.471 38.5088 330.21 38.48 330.084C38.3907 329.727 38.0268 329.509 37.6697 329.599C37.3107 329.688 37.0918 330.051 37.1811 330.408C37.3136 330.942 40.5545 343.512 51.3113 346.99C68.0384 352.397 75.943 359.265 76.9424 369.258Z" fill="#1C31B5"/>
<path d="M120.359 348.827C120.019 349.966 119.634 351.206 119.199 352.523L119.198 352.526C114.635 366.334 105.275 389.592 87.9894 392.333C87.9894 392.333 101.67 344.73 70.4271 328.807C39.1839 312.881 44.0607 301.449 48.1907 280.61C52.3196 259.771 59.9516 256.535 39.4691 234.391C18.9865 212.246 26.4735 183.357 26.4735 183.357C26.4735 183.357 44.2556 219.179 67.023 222.419C89.7894 225.659 91.6892 245.599 89.1529 260.001C86.6156 274.402 105.845 278.132 115.439 287.679C125.033 297.225 122.25 341.624 122.25 341.624C122.25 341.624 121.649 344.481 120.359 348.827Z" fill="#009CF8"/>
<path d="M120.359 348.827C120.019 349.966 119.634 351.206 119.199 352.523C117.62 345.178 114.966 338.866 112.374 333.962C106.233 322.346 96.8992 312.342 88.0182 307.853C73.8784 300.711 68.2384 285.48 69.7389 258.464C70.6106 242.783 55.289 231.814 55.1315 231.707C54.6832 231.391 54.5738 230.769 54.8896 230.321C55.2064 229.87 55.8275 229.761 56.2758 230.076C56.945 230.547 72.6602 241.776 71.727 258.573C70.2755 284.689 75.5766 299.341 88.9149 306.081C98.2854 310.812 107.714 320.888 114.135 333.031C116.404 337.322 118.719 342.666 120.359 348.827Z" fill="#FBBA58"/>
<path d="M132.752 381.14C132.805 384.759 132.871 388.524 132.949 392.334H167.854C167.921 388.164 167.972 384.168 168.011 380.42C168.115 370.26 168.127 361.899 168.119 356.702C168.115 353.016 168.1 350.926 168.1 350.926L132.507 350.549C132.507 350.549 132.507 353.624 132.534 358.653C132.557 364.242 132.619 372.246 132.752 381.14Z" fill="#18315B"/>
<path d="M132.534 358.653C132.557 364.242 132.619 372.246 132.752 381.14C143.717 381.977 155.737 381.985 168.01 380.42C168.115 370.26 168.127 361.899 168.119 356.702L132.534 358.653Z" fill="#000B29"/>
<path d="M88.7618 373.114C88.8012 378.802 88.8684 385.321 88.9816 392.334H123.89C123.975 388.227 124.045 384.171 124.102 380.294C124.222 371.976 124.284 364.488 124.316 359.103C124.343 353.806 124.343 350.548 124.343 350.548L88.734 350.926C88.734 350.926 88.7071 354.701 88.7148 361.053C88.7148 364.413 88.7301 368.489 88.7618 373.114Z" fill="#18315B"/>
<path d="M88.7148 361.054C88.7148 364.414 88.7302 368.489 88.7619 373.115C95.8496 375.203 108.54 378.454 124.102 380.295C124.223 371.977 124.285 364.488 124.316 359.104L88.7148 361.054Z" fill="#000B29"/>
<path d="M147.231 163.278C147.231 163.278 152.84 157.876 152.822 152.541C152.803 147.206 149.176 148.783 147.231 143.812C145.286 138.84 139.503 135.809 136.332 136.416C133.161 137.022 126.466 124.655 117.386 126.837C108.305 129.019 109.096 140.659 105.184 142.356C101.273 144.054 102.364 150.965 104.426 152.541C106.487 154.117 107.358 160.451 108.519 160.308C109.679 160.166 147.231 163.278 147.231 163.278Z" fill="#18315B"/>
<path d="M109.479 163.15C109.479 163.15 105.953 158.448 103.33 162.336C100.709 166.224 104.416 177.708 110.836 174.905L109.479 163.15Z" fill="#F97853"/>
<path d="M109.434 171.356C109.197 171.356 108.979 171.2 108.912 170.96C107.916 167.414 104.243 165.977 104.207 165.963C103.928 165.856 103.786 165.543 103.893 165.264C103.999 164.984 104.312 164.843 104.591 164.948C104.763 165.013 108.811 166.584 109.956 170.667C110.037 170.956 109.869 171.255 109.581 171.336C109.532 171.349 109.482 171.356 109.434 171.356Z" fill="#EA5143"/>
<path d="M105.727 169.57C105.626 169.57 105.524 169.542 105.433 169.483C105.181 169.321 105.108 168.985 105.27 168.733C105.298 168.691 105.947 167.7 107.307 167.092C107.579 166.969 107.902 167.092 108.024 167.365C108.147 167.639 108.024 167.96 107.75 168.082C106.699 168.552 106.187 169.313 106.183 169.321C106.08 169.482 105.905 169.57 105.727 169.57Z" fill="#EA5143"/>
<path d="M145.823 163.15C145.823 163.15 149.349 158.448 151.972 162.336C154.593 166.224 150.886 177.708 144.466 174.905L145.823 163.15Z" fill="#F97853"/>
<path d="M145.868 171.356C146.105 171.356 146.323 171.2 146.39 170.96C147.386 167.414 151.059 165.977 151.095 165.963C151.375 165.856 151.516 165.543 151.409 165.264C151.304 164.984 150.991 164.843 150.711 164.948C150.539 165.013 146.491 166.584 145.346 170.667C145.265 170.956 145.433 171.255 145.721 171.336C145.77 171.349 145.82 171.356 145.868 171.356Z" fill="#EA5143"/>
<path d="M149.575 169.57C149.676 169.57 149.778 169.542 149.869 169.483C150.121 169.321 150.194 168.985 150.031 168.733C150.004 168.691 149.355 167.7 147.995 167.092C147.723 166.969 147.4 167.092 147.278 167.365C147.155 167.639 147.278 167.96 147.552 168.082C148.603 168.552 149.115 169.313 149.118 169.321C149.222 169.482 149.397 169.57 149.575 169.57Z" fill="#EA5143"/>
<path d="M136.332 184.645V196.066C136.332 196.066 132.926 201.882 128.32 202.278C123.719 202.679 119.631 197.27 119.631 197.27V185.448L136.332 184.645Z" fill="#FFA681"/>
<path d="M136.332 184.645V189.712C133.242 193.142 127.753 193.999 119.631 192.8V185.448L136.332 184.645Z" fill="#F97853"/>
<path d="M148.372 155.315C148.161 159.754 147.738 165.303 146.891 169.741C146.68 170.848 146.441 171.89 146.175 172.823C143.772 181.237 137.761 195.67 120.931 189.658C113.497 187.005 110.052 178.726 108.517 170.306C107.475 164.587 107.318 158.809 107.394 154.681C107.475 150.465 109.776 146.613 113.444 144.536C123.378 138.903 133.859 141.003 140.761 143.656C145.552 145.496 148.616 150.199 148.372 155.315Z" fill="#FFA681"/>
<path d="M127.301 176.488C138.578 174.553 136.562 181.155 136.49 181.391V181.395L136.486 181.399C135.722 182.126 134.943 182.738 134.169 183.156C129.8 185.516 129.327 185.16 127.603 185.236C125.85 185.32 123.432 184.8 120.976 183.428C120.212 182.999 119.07 182.17 117.819 181.028C117.819 181.028 116.047 174.972 127.301 176.488ZM108.518 170.305C108.518 170.305 110.151 180.035 111.694 183.582C113.239 187.128 117.453 187.796 119.035 190.794C121.292 195.068 124.732 198.455 130.392 196.391C135.1 194.674 134.887 192.267 137.524 190.404C142.044 187.212 144.284 183.702 144.466 180.791C144.648 177.881 146.892 169.741 146.892 169.741L144.466 169.57C144.466 169.57 143.084 172.432 141.051 175.587C139.011 171.106 129.178 174.364 129.178 174.364L127.301 174.971L125.374 174.364C125.374 174.364 115.425 171.243 113.461 175.943C112.257 174.103 111.279 172.032 110.836 169.839L108.518 170.305Z" fill="#18315B"/>
<path d="M120.524 164.64C120.524 165.859 119.896 166.847 119.121 166.847C118.346 166.847 117.718 165.859 117.718 164.64C117.718 163.421 118.346 162.433 119.121 162.433C119.896 162.433 120.524 163.421 120.524 164.64Z" fill="#18315B"/>
<path d="M137.208 164.64C137.208 165.859 136.58 166.847 135.804 166.847C135.03 166.847 134.401 165.859 134.401 164.64C134.401 163.421 135.03 162.433 135.804 162.433C136.58 162.433 137.208 163.421 137.208 164.64Z" fill="#18315B"/>
<path d="M141.328 157.372C141.328 157.372 135.529 155.08 131.065 157.009L131.51 159.491C131.51 159.491 138.064 158.938 141.367 160.276C141.661 159.32 141.706 158.354 141.328 157.372Z" fill="#18315B"/>
<path d="M113.756 157.382C113.756 157.382 119.597 155.074 124.096 157.017L123.646 159.518C123.646 159.518 117.044 158.961 113.717 160.307C113.42 159.345 113.376 158.372 113.756 157.382Z" fill="#18315B"/>
<path d="M127.84 173.891C128.755 173.891 129.663 173.535 129.803 173.478C130.081 173.364 130.213 173.049 130.1 172.771C129.988 172.493 129.671 172.36 129.394 172.474C128.904 172.671 127.727 172.984 127.218 172.679C127.119 172.619 126.985 172.503 126.95 172.173C126.754 170.279 127.274 163.929 127.279 163.864C127.304 163.567 127.081 163.305 126.782 163.28C126.483 163.254 126.222 163.477 126.198 163.776C126.176 164.041 125.665 170.291 125.871 172.285C125.949 173.036 126.343 173.42 126.66 173.61C127.008 173.818 127.425 173.891 127.84 173.891Z" fill="#F97853"/>
<path d="M120.922 177.574C121.334 179.647 122.703 183.459 127.315 183.459C131.938 183.459 133.234 179.975 133.681 177.574H120.922Z" fill="white"/>
<path d="M148.372 155.315C148.161 159.754 147.738 165.303 146.891 169.741L144.466 169.57C144.466 169.57 145.054 165.823 145.325 163.381C145.596 160.939 146.057 156.376 143.974 155.807C141.895 155.243 143.115 150.036 140.224 147.779C137.332 145.517 130.908 143.526 126.644 146.152C122.379 148.772 117.529 147.323 115.565 147.779C113.595 148.23 110.927 150.943 111.648 153.476C112.374 156.004 110.205 157.546 109.679 160.165C109.153 162.786 110.833 169.839 110.833 169.839L108.517 170.306C107.475 164.587 107.318 158.809 107.394 154.681C107.475 150.465 109.776 146.613 113.444 144.536C123.378 138.903 133.859 141.003 140.761 143.656C145.552 145.496 148.616 150.199 148.372 155.315Z" fill="#18315B"/>
<path d="M175.475 368.087C164.498 370.867 153.52 372.665 142.535 373.493C142.037 373.528 141.543 373.565 141.045 373.598C139.535 373.701 138.025 373.786 136.516 373.851C129.044 374.172 121.569 374.047 114.096 373.47C112.589 373.355 111.083 373.222 109.575 373.067C109.094 373.02 108.613 372.97 108.129 372.914C99.2053 371.946 90.2851 370.335 81.3542 368.087C81.2649 359.861 81.3667 333.852 81.8716 305.648C81.9302 302.258 81.9955 298.836 82.0704 295.41C82.8614 258.238 84.3888 220.505 87.1344 216.726C89.7667 213.108 97.701 208.511 105.286 204.365C105.738 204.117 106.191 203.87 106.641 203.627C108.346 202.7 110.014 201.802 111.582 200.95C114.943 199.121 117.841 197.495 119.632 196.239V197.272C119.632 197.272 123.716 202.678 128.317 202.279C132.513 201.918 135.707 197.072 136.25 196.203C138.228 197.597 141.783 199.518 145.904 201.695C147.051 202.303 148.235 202.925 149.446 203.566C149.891 203.8 150.339 204.037 150.789 204.277C159.177 208.727 168.222 213.743 170.937 217.471C171.139 217.747 171.333 218.209 171.516 218.844C173.123 224.282 174.12 242.333 174.728 264.19C174.73 264.268 174.732 264.348 174.735 264.427C174.761 265.31 174.783 266.201 174.805 267.097C174.81 267.213 174.813 267.331 174.815 267.45C175.014 275.117 175.163 283.188 175.28 291.3C175.289 291.944 175.301 292.587 175.308 293.23C175.311 293.555 175.315 293.873 175.318 294.198C175.345 295.795 175.361 297.392 175.376 298.982C175.393 300.155 175.407 301.326 175.417 302.5C175.719 331.815 175.596 359.468 175.475 368.087Z" fill="#FBBA58"/>
<path d="M174.805 267.097C172.163 262.783 169.327 258.379 166.656 254.483C166.649 254.474 166.641 254.464 166.636 254.455C165.514 252.819 164.423 251.275 163.385 249.865C163.368 249.837 163.35 249.814 163.331 249.792C163.007 249.349 162.685 248.918 162.371 248.5C162.32 248.428 162.282 248.353 162.257 248.273L162.255 248.27C162.17 247.987 162.265 247.673 162.513 247.483C162.836 247.239 163.293 247.303 163.535 247.624C166.743 251.875 170.847 257.987 174.727 264.191C174.73 264.269 174.732 264.348 174.735 264.428C174.762 265.311 174.784 266.201 174.805 267.097Z" fill="#FBBA58"/>
<path d="M171.049 216.871C171.049 216.871 187.604 247.202 197.696 262.572C197.696 262.572 203.435 257.3 210.899 250.248C218.99 242.601 230.059 229.819 230.059 229.819L236.184 237.083C236.184 237.083 211.316 281.834 200.162 287.457C189.008 293.082 168.453 253.275 168.453 253.275L171.049 216.871Z" fill="#FBBA58"/>
<path d="M100.953 336.41H100.926C100.513 336.394 100.19 336.048 100.204 335.634C101.073 311.141 88.3717 303.204 88.243 303.128C87.8897 302.913 87.7736 302.455 87.9867 302.1C88.1979 301.747 88.6568 301.63 89.012 301.841C89.1531 301.926 92.5102 303.966 95.7627 309.192C98.7308 313.963 102.171 322.433 101.7 335.688C101.687 336.092 101.354 336.41 100.953 336.41Z" fill="#FBBA58"/>
<path d="M155.14 313.333C154.753 313.333 154.424 313.036 154.394 312.643C153.992 307.485 155.691 303.723 157.842 298.959C158.471 297.565 159.122 296.125 159.788 294.51C163.962 284.385 161.864 272.807 161.842 272.692C161.767 272.285 162.034 271.894 162.441 271.818C162.848 271.741 163.239 272.009 163.315 272.416C163.407 272.907 165.515 284.549 161.172 295.08C160.497 296.719 159.841 298.171 159.207 299.576C157.064 304.322 155.515 307.752 155.887 312.527C155.919 312.94 155.611 313.3 155.199 313.331C155.179 313.333 155.159 313.333 155.14 313.333Z" fill="#FBBA58"/>
<path d="M111.581 200.949C111.9 203.361 112.37 206.489 112.882 210.043C113.04 211.097 113.196 212.193 113.356 213.317C113.876 216.987 114.414 220.98 114.872 225.018C114.996 226.102 115.112 227.19 115.222 228.274C115.625 232.271 115.931 236.243 116.041 239.935C116.076 241.051 116.091 242.143 116.084 243.202C116.076 246.02 115.921 248.609 115.578 250.825C115.36 252.226 115.167 253.594 114.996 254.932C114.854 256.042 114.727 257.132 114.614 258.205C114.178 262.37 113.959 266.248 113.898 269.903C113.88 271.013 113.876 272.1 113.886 273.166C113.92 277.316 114.156 281.183 114.498 284.864C114.6 285.967 114.713 287.05 114.829 288.12C115.277 292.142 115.822 295.972 116.335 299.759C116.484 300.844 116.629 301.924 116.771 303.004C116.993 304.735 117.204 306.467 117.386 308.209C117.579 310.056 117.702 312.217 117.76 314.614C117.79 315.661 117.804 316.757 117.808 317.889C117.822 321.47 117.731 325.439 117.564 329.589C117.52 330.674 117.473 331.771 117.419 332.882C117.233 336.736 116.989 340.701 116.717 344.615C116.637 345.718 116.557 346.812 116.473 347.903C116.171 351.977 115.836 355.946 115.498 359.638C115.397 360.758 115.295 361.853 115.193 362.915C114.803 366.978 114.425 370.59 114.094 373.471C121.569 374.046 129.044 374.172 136.516 373.849C136.689 370.783 137.166 365.836 137.636 360.012C137.722 358.947 137.806 357.849 137.89 356.728C138.17 353.025 138.425 349.068 138.592 345.074C138.639 343.979 138.679 342.88 138.708 341.785C138.821 337.799 138.824 333.838 138.654 330.125C138.603 328.997 138.537 327.894 138.45 326.821C138.363 325.723 138.258 324.653 138.13 323.62C137.77 320.703 137.632 317.902 137.65 315.131C137.654 314.032 137.682 312.941 137.734 311.846C137.905 308.05 138.319 304.244 138.799 300.204C138.926 299.129 139.061 298.039 139.196 296.926C139.629 293.332 140.08 289.52 140.436 285.348C140.53 284.278 140.615 283.184 140.694 282.063C140.941 278.484 141.109 274.64 141.135 270.449C141.142 269.369 141.138 268.266 141.124 267.139C141.083 263.512 140.931 259.632 140.636 255.451C140.611 255.082 140.585 254.706 140.556 254.329C140.502 253.597 140.454 252.858 140.422 252.12C140.229 248.308 140.28 244.387 140.495 240.477C140.552 239.379 140.625 238.28 140.709 237.181C141.011 233.268 141.451 229.39 141.961 225.673C142.11 224.567 142.266 223.472 142.425 222.396C143.037 218.321 143.695 214.488 144.299 211.062C144.499 209.934 144.692 208.85 144.874 207.817C145.285 205.503 145.641 203.441 145.903 201.695C141.782 199.516 138.228 197.596 136.25 196.203C135.707 197.072 132.514 201.917 128.316 202.277C123.715 202.677 119.63 197.271 119.63 197.271V196.239C117.841 197.494 114.942 199.119 111.581 200.949Z" fill="white"/>
<path d="M112.883 210.043C113.04 211.098 113.196 212.193 113.357 213.317C117.485 213.411 122.334 212.793 128.175 211.443C134.431 210.003 139.95 210.254 144.3 211.062C144.5 209.934 144.693 208.85 144.874 207.817C140.161 206.947 134.214 206.697 127.441 208.258C121.675 209.584 116.874 210.196 112.883 210.043Z" fill="#E3E3E3"/>
<path d="M114.874 225.018C114.997 226.102 115.114 227.19 115.223 228.274C118.93 228.176 123.193 227.557 128.175 226.403C133.352 225.211 138.03 225.181 141.961 225.673C142.111 224.567 142.267 223.473 142.426 222.395C138.164 221.868 133.09 221.912 127.441 223.214C122.603 224.331 118.442 224.941 114.874 225.018Z" fill="#E3E3E3"/>
<path d="M116.041 239.936C116.077 241.052 116.091 242.144 116.084 243.201C119.587 243.037 123.574 242.428 128.175 241.365C132.721 240.317 136.882 240.168 140.495 240.477C140.553 239.379 140.625 238.281 140.71 237.182C136.825 236.862 132.347 237.044 127.441 238.175C123.122 239.171 119.343 239.765 116.041 239.936Z" fill="#E3E3E3"/>
<path d="M114.615 258.205C118.464 258.162 122.915 257.537 128.175 256.326C132.78 255.264 136.993 255.125 140.637 255.452C140.612 255.082 140.586 254.706 140.557 254.329C140.503 253.597 140.456 252.859 140.423 252.12C136.603 251.833 132.227 252.03 127.441 253.136C122.657 254.241 118.54 254.845 114.997 254.933C114.855 256.042 114.729 257.133 114.615 258.205Z" fill="#E3E3E3"/>
<path d="M113.888 273.166C117.899 273.199 122.581 272.578 128.175 271.286C133.002 270.173 137.386 270.067 141.135 270.449C141.143 269.369 141.139 268.266 141.125 267.14C137.146 266.772 132.526 266.925 127.441 268.096C122.155 269.315 117.682 269.929 113.899 269.904C113.881 271.014 113.877 272.101 113.888 273.166Z" fill="#E3E3E3"/>
<path d="M114.499 284.864C114.601 285.966 114.714 287.05 114.83 288.12C118.627 288.058 123.014 287.435 128.175 286.246C132.704 285.202 136.847 285.042 140.437 285.347C140.531 284.278 140.616 283.184 140.696 282.063C136.81 281.743 132.34 281.924 127.441 283.056C122.435 284.209 118.151 284.824 114.499 284.864Z" fill="#E3E3E3"/>
<path d="M116.335 299.759C116.484 300.844 116.63 301.924 116.772 303.004C120.107 302.796 123.869 302.2 128.175 301.208C132.03 300.316 135.606 300.072 138.799 300.204C138.927 299.13 139.062 298.039 139.196 296.926C135.676 296.766 131.721 297.028 127.44 298.018C123.246 298.98 119.565 299.571 116.335 299.759Z" fill="#E3E3E3"/>
<path d="M117.761 314.615C117.79 315.662 117.804 316.757 117.808 317.889C120.882 317.63 124.312 317.059 128.175 316.164C131.577 315.382 134.759 315.099 137.651 315.131C137.654 314.033 137.683 312.942 137.734 311.846C134.595 311.814 131.14 312.123 127.441 312.978C123.854 313.804 120.638 314.353 117.761 314.615Z" fill="#E3E3E3"/>
<path d="M117.419 332.882C120.591 332.638 124.145 332.052 128.175 331.125C131.969 330.251 135.493 330.001 138.655 330.125C138.604 328.997 138.538 327.895 138.451 326.822C135.123 326.727 131.423 327.018 127.44 327.935C123.77 328.782 120.493 329.339 117.564 329.589C117.521 330.674 117.474 331.772 117.419 332.882Z" fill="#E3E3E3"/>
<path d="M116.474 347.903C119.882 347.711 123.741 347.107 128.175 346.085C131.947 345.215 135.45 344.962 138.593 345.074C138.64 343.979 138.68 342.88 138.709 341.785C135.316 341.669 131.529 341.953 127.441 342.895C123.413 343.826 119.857 344.404 116.717 344.615C116.638 345.718 116.557 346.812 116.474 347.903Z" fill="#E3E3E3"/>
<path d="M115.193 362.915C118.907 362.82 123.177 362.198 128.174 361.045C131.569 360.263 134.747 359.976 137.636 360.013C137.723 358.947 137.807 357.849 137.89 356.728C134.708 356.681 131.201 356.987 127.44 357.855C122.882 358.907 118.924 359.506 115.498 359.638C115.396 360.758 115.295 361.854 115.193 362.915Z" fill="#E3E3E3"/>
<path d="M141.044 373.598C141.542 373.566 142.037 373.529 142.535 373.493C145.481 356.172 143.783 330.746 143.149 322.955C142.495 314.865 143.753 304.462 146.601 294.422C148.813 286.624 147.457 268.543 146.369 254.016C146.064 249.939 145.772 246.086 145.602 242.921C145.044 232.693 148.748 213.764 150.788 204.278C150.338 204.038 149.889 203.801 149.446 203.565C147.402 212.957 143.564 232.315 144.146 243.002C144.321 246.18 144.612 250.04 144.918 254.124C145.998 268.539 147.343 286.475 145.205 294.023C142.309 304.226 141.032 314.815 141.702 323.071C142.331 330.874 144.041 356.459 141.044 373.598Z" fill="#FBBA58"/>
<path d="M110.865 303.12C112.596 313.771 112.05 320.689 111.418 328.695C111.214 331.284 111.003 333.958 110.853 336.911C110.391 346.18 108.824 364.843 108.129 372.915C108.613 372.97 109.093 373.02 109.577 373.067C110.271 364.996 111.843 346.285 112.309 336.984C112.454 334.053 112.665 331.386 112.868 328.811C113.505 320.71 114.059 313.713 112.298 302.888C111.924 300.563 111.523 298.207 111.127 295.86C109.165 284.253 107.136 272.25 108.097 266.5C108.329 265.095 108.628 263.502 108.948 261.814C110.249 254.874 111.876 246.239 111.363 238.745C110.853 231.319 107.809 211.207 106.642 203.626C106.19 203.87 105.739 204.118 105.285 204.365C106.503 212.291 109.417 231.631 109.911 238.844C110.41 246.152 108.805 254.689 107.518 261.544C107.198 263.24 106.896 264.84 106.66 266.26C105.663 272.25 107.62 283.834 109.693 296.103C110.09 298.447 110.486 300.8 110.865 303.12Z" fill="#FBBA58"/>
<path d="M82.2332 229.078C82.2332 229.078 67.4136 278.498 63.7436 296.11C60.0735 313.722 59.7903 350.336 59.7903 350.336C59.7903 350.336 53.3112 363.784 53.1576 369.77C52.9944 376.15 56.3448 381.227 55.9628 385.402C55.5797 389.578 60.6639 387.311 59.2277 378.854C57.7916 370.396 61.8658 362.737 63.6245 362.982C65.3832 363.227 62.1692 372.217 63.7311 375.456C65.292 378.695 67.3128 372.402 69.3231 368.583C71.4092 364.619 71.2872 355.97 70.3378 349.795C69.3884 343.62 80.581 306.116 80.6348 295.249L94.8082 247.355C94.8082 247.355 90.1263 227.362 82.2332 229.078Z" fill="#FFA681"/>
<path d="M96.624 246.152C96.1219 249.327 94.3655 254.779 92.096 261.639V261.643C91.9031 262.221 91.7063 262.812 91.5104 263.412C91.4989 263.436 91.4883 263.465 91.4816 263.494C90.9133 265.201 90.321 266.986 89.7095 268.835C89.7056 268.845 89.7027 268.856 89.6989 268.867C87.1847 276.498 84.4026 285.228 82.0669 294.198C81.2634 297.268 80.5146 300.371 79.8483 303.462C78.9978 307.409 78.2778 311.344 77.7498 315.197C75.8548 329.073 72.2317 346.649 72.2317 346.649C66.9181 348.831 58.6093 345.95 58.6093 345.95C58.6093 345.95 58.3952 320.638 59.5808 310.803C61.0467 298.643 62.913 289.985 65.2256 280.048C71.5914 252.698 82.7946 225.938 85.8685 218.842C86.1124 218.274 86.3043 217.834 86.4397 217.529H89.0845C94.2887 220.835 97.9804 237.596 96.624 246.152Z" fill="#FBBA58"/>
<path d="M58.1777 340.883L58.5944 346.707C58.5944 346.707 66.4942 349.274 72.4145 347.465L73.9803 342.271C68.2789 342.573 63.0113 342.432 58.1777 340.883Z" fill="#009CF8"/>
<path d="M92.0953 261.639V261.643C92.0953 261.727 92.081 261.81 92.0522 261.895C91.8736 262.385 91.6912 262.891 91.5097 263.412C91.4982 263.436 91.4877 263.465 91.481 263.495C90.8982 265.145 90.3059 266.942 89.7088 268.835C89.7059 268.845 89.7021 268.857 89.6982 268.867C86.6032 278.702 83.4563 291.077 82.0086 298.98C82.023 297.392 82.0413 295.794 82.0672 294.198C81.2627 297.268 80.5139 300.371 79.8486 303.462C80.1462 300.564 80.9757 296.22 82.1066 291.3C84.3914 281.34 87.8973 269.005 90.6841 261.396C90.8224 261.018 91.24 260.824 91.6182 260.963C91.9139 261.072 92.0953 261.345 92.0953 261.639Z" fill="#FBBA58"/>
<path d="M357.188 392.334H392.194C392.079 389.906 391.964 387.578 391.851 385.38C391.241 373.394 390.723 365.232 390.723 365.232L362.253 366.496L359.893 366.603L355.706 366.791C355.706 366.791 356.11 374.089 356.738 384.78C356.878 387.146 357.028 389.678 357.188 392.334Z" fill="#18315B"/>
<path d="M359.894 366.603L355.707 366.79C355.707 366.79 356.111 374.089 356.739 384.78C367.677 385.692 379.619 386.063 391.851 385.38C391.241 373.393 390.723 365.231 390.723 365.231L362.254 366.496L359.894 366.603Z" fill="#000B29"/>
<path d="M363.704 392.334C363.065 381.238 362.54 371.76 362.252 366.497L359.891 366.604C360.178 371.842 360.7 381.276 361.339 392.334H363.704Z" fill="#000B29"/>
<path d="M346.919 392.334C347.099 389.328 347.267 386.477 347.422 383.85C348.025 373.666 348.404 366.791 348.404 366.791L343.859 366.588L341.502 366.481L313.382 365.232C313.382 365.232 313.073 370.096 312.652 377.828C312.427 381.948 312.172 386.887 311.912 392.334H346.919Z" fill="#18315B"/>
<path d="M312.651 377.827C320.283 379.621 332.591 382.14 347.423 383.849C348.025 373.665 348.404 366.79 348.404 366.79L343.859 366.587L341.502 366.481L313.383 365.231C313.383 365.231 313.073 370.095 312.651 377.827Z" fill="#000B29"/>
<path d="M342.412 392.334C343.05 381.267 343.572 371.824 343.859 366.588L341.502 366.482C341.214 371.742 340.689 381.228 340.047 392.334H342.412Z" fill="#000B29"/>
<path d="M395.806 370.688C388.675 372.651 381.545 374.131 374.414 375.126C371.934 375.473 369.457 375.764 366.979 375.992C363.637 376.302 360.296 376.509 356.956 376.614C351.433 376.784 345.909 376.663 340.383 376.253C329.701 375.471 319.021 373.606 308.336 370.688C308.236 360.727 308.386 325.004 309.134 290.549C309.17 289.003 309.204 287.458 309.242 285.918C309.247 285.591 309.258 285.266 309.266 284.939C309.271 284.583 309.282 284.227 309.291 283.874C309.315 282.78 309.345 281.692 309.371 280.607C309.426 278.393 309.484 276.199 309.548 274.026C309.586 272.726 309.625 271.434 309.664 270.155C309.671 269.889 309.68 269.626 309.688 269.361C309.715 268.517 309.742 267.677 309.768 266.843V266.84C309.778 266.581 309.785 266.322 309.794 266.064C309.819 265.294 309.845 264.529 309.869 263.772C309.894 263.126 309.915 262.49 309.937 261.851C310.765 238.608 311.975 220.275 313.706 217.691C316.644 213.309 326.649 207.492 334.697 202.758C337.563 201.074 340.987 199.322 342.947 198.023C345.805 200.324 347.879 202.403 352.115 202.259C356.856 202.097 358.024 199.247 359.831 196.803C360.935 197.519 363.737 199.818 365.193 200.672C366.439 201.408 367.789 202.187 369.197 202.997C371.376 204.244 373.691 205.567 375.985 206.916C379.384 208.918 382.735 210.982 385.514 212.954C388.291 214.926 390.495 216.81 391.586 218.444C393.158 220.806 394.178 236.095 394.832 256.216C394.86 256.92 394.878 257.633 394.906 258.351C394.907 258.439 394.907 258.526 394.907 258.616C394.935 259.347 394.956 260.097 394.973 260.846C395.039 263.111 395.099 265.425 395.162 267.777C395.174 268.272 395.186 268.773 395.193 269.271C395.203 269.647 395.215 270.025 395.218 270.395C395.239 271.362 395.261 272.333 395.282 273.312C395.287 273.508 395.29 273.705 395.295 273.9C395.348 276.482 395.399 279.101 395.445 281.74C395.46 282.512 395.472 283.285 395.484 284.06C396.081 320.284 395.944 359.985 395.806 370.688Z" fill="#FBBA58"/>
<path d="M395.484 284.06L384.192 295.515L373.671 284.849L363.153 295.515L352.594 284.805L342.03 295.515L331.401 284.735L320.77 295.515L309.292 283.875C309.316 282.78 309.344 281.692 309.371 280.607C309.426 278.394 309.484 276.2 309.548 274.026L320.77 262.644L331.401 273.426L342.03 262.644L352.594 273.354L363.153 262.644L373.671 273.31L384.192 262.644L395.295 273.9C395.348 276.482 395.399 279.101 395.445 281.74C395.46 282.513 395.472 283.285 395.484 284.06Z" fill="#DFB16C"/>
<path d="M375.992 343.097H375.988C360.869 343.031 347.964 336.151 339.8 330.391C330.971 324.16 325.619 317.848 325.567 317.786C325.308 317.478 325.348 317.019 325.655 316.76C325.963 316.502 326.422 316.542 326.68 316.849C326.732 316.91 331.986 323.102 340.672 329.225C348.657 334.854 361.269 341.578 375.995 341.642C376.397 341.643 376.722 341.971 376.72 342.372C376.718 342.773 376.393 343.097 375.992 343.097Z" fill="#FBBA58"/>
<path d="M366.561 334.154C353.688 331.623 342.292 321.764 341.775 321.311C341.473 321.047 341.442 320.587 341.706 320.285C341.971 319.982 342.43 319.953 342.733 320.216C342.867 320.333 356.277 331.929 369.941 333.176C370.348 333.209 370.637 333.566 370.601 333.967C370.564 334.366 370.21 334.661 369.811 334.624C368.72 334.525 367.635 334.365 366.561 334.154Z" fill="#FBBA58"/>
<path d="M340.779 222.267C340.436 222.267 340.131 222.024 340.065 221.674C339.99 221.28 340.249 220.9 340.644 220.825C359.077 217.327 364.634 205.468 364.687 205.349C364.853 204.983 365.284 204.82 365.65 204.986C366.016 205.151 366.179 205.582 366.012 205.948C365.78 206.463 360.084 218.617 340.915 222.253C340.869 222.263 340.823 222.267 340.779 222.267Z" fill="#FBBA58"/>
<path d="M318.288 254.188V254.193C318.27 254.272 318.234 254.352 318.188 254.425C317.912 254.868 317.624 255.325 317.336 255.792C317.322 255.818 317.306 255.841 317.293 255.87C316.372 257.36 315.411 258.988 314.421 260.708C314.419 260.721 314.414 260.727 314.403 260.737C312.858 263.445 311.257 266.38 309.688 269.361C309.715 268.517 309.742 267.677 309.768 266.843V266.84C309.778 266.58 309.785 266.322 309.795 266.063C312.323 261.369 314.844 256.978 316.959 253.648C317.177 253.307 317.624 253.21 317.965 253.423C318.229 253.595 318.35 253.9 318.288 254.188Z" fill="#FBBA58"/>
<path d="M411.176 227.225C411.176 227.225 434.749 219.649 441.725 204.18C443.743 199.7 427.12 154.216 427.12 154.216L419.098 154.605C419.098 154.605 421.384 170.386 422.77 179.322C423.91 186.669 425.751 195.447 426.372 198.339C426.508 198.966 426.583 199.314 426.583 199.314C426.19 199.382 425.795 199.458 425.393 199.538C414.38 201.776 400.318 208.949 400.318 208.949L411.176 227.225Z" fill="#FFA681"/>
<path d="M432.504 203.674C432.839 203.917 433.318 203.844 433.559 203.508C433.811 203.166 433.734 202.693 433.393 202.453C431.678 201.207 429.089 199.745 426.371 198.339C426.507 198.966 426.582 199.314 426.582 199.314C426.189 199.382 425.794 199.458 425.392 199.538C428.16 200.96 430.807 202.441 432.504 203.674Z" fill="#F97853"/>
<path d="M375.107 206.416C375.107 206.416 367.977 223.149 386.129 232.465C398.692 238.912 427.309 222.08 427.309 222.08L417.107 200.417C417.107 200.417 390.923 211.217 375.107 206.416Z" fill="#FBBA58"/>
<path d="M423.014 128.644C422.304 129.142 422.449 132.215 422.761 135.109C422.662 135.124 422.559 135.141 422.456 135.159C421.612 131.296 419.932 124.725 418.495 125.98C417.554 126.801 418.815 132.466 419.673 135.854C419.496 135.909 419.317 135.966 419.14 136.023C418.058 132 415.726 124.252 414.173 125.759C413.138 126.764 415.126 133.586 416.231 137.067C416.075 137.127 415.925 137.187 415.777 137.245C414.721 133.869 412.466 127.482 410.92 128.983C409.52 130.341 413.531 139.997 413.531 139.997L414.582 143.787C414.582 143.787 413.332 144.326 411.383 142.12C409.433 139.915 407.101 139.526 408.72 142.717C410.551 146.324 413.26 148.91 414.453 151.462C415.645 154.014 419.397 154.858 419.397 154.858L426.93 154.494C426.93 154.494 428.392 141.761 425.581 135.692C425.098 132.084 424.25 127.777 423.014 128.644Z" fill="#FFA681"/>
<path d="M329.808 158.007C329.808 170.839 337.707 179.68 350.533 179.68C363.364 179.68 372.309 170.174 372.309 157.343C372.309 153.804 371.732 150.5 370.622 147.577C370.556 147.402 370.491 147.228 370.42 147.059C370.284 146.727 370.143 146.395 369.989 146.074C369.767 145.579 369.516 145.094 369.255 144.626C365.912 138.615 359.924 134.794 351.877 134.794C336.493 134.794 329.808 145.176 329.808 158.007Z" fill="#18315B"/>
<path d="M332.688 163.532C332.688 163.532 329.123 158.779 326.473 162.709C323.822 166.64 327.57 178.248 334.059 175.414L332.688 163.532Z" fill="#F97853"/>
<path d="M332.642 171.827C332.403 171.827 332.182 171.668 332.114 171.427C331.109 167.843 327.395 166.39 327.358 166.376C327.076 166.267 326.934 165.951 327.04 165.668C327.148 165.386 327.464 165.243 327.747 165.349C327.921 165.416 332.012 167.003 333.171 171.13C333.252 171.422 333.082 171.725 332.79 171.806C332.742 171.821 332.692 171.827 332.642 171.827Z" fill="#EA5143"/>
<path d="M328.895 170.022C328.793 170.022 328.69 169.994 328.597 169.934C328.344 169.77 328.271 169.431 328.434 169.176C328.461 169.134 329.118 168.131 330.492 167.517C330.767 167.393 331.093 167.517 331.217 167.794C331.34 168.07 331.217 168.394 330.941 168.518C329.877 168.994 329.361 169.762 329.356 169.77C329.251 169.933 329.075 170.022 328.895 170.022Z" fill="#EA5143"/>
<path d="M369.423 163.532C369.423 163.532 372.989 158.779 375.639 162.709C378.29 166.64 374.542 178.248 368.052 175.414L369.423 163.532Z" fill="#F97853"/>
<path d="M369.47 171.827C369.709 171.827 369.93 171.668 369.998 171.427C371.003 167.843 374.717 166.39 374.754 166.376C375.036 166.267 375.178 165.951 375.071 165.668C374.964 165.386 374.649 165.243 374.365 165.349C374.192 165.416 370.1 167.003 368.941 171.13C368.86 171.422 369.03 171.725 369.322 171.806C369.37 171.821 369.42 171.827 369.47 171.827Z" fill="#EA5143"/>
<path d="M373.218 170.022C373.32 170.022 373.423 169.994 373.515 169.934C373.769 169.77 373.842 169.431 373.678 169.176C373.651 169.134 372.995 168.131 371.621 167.517C371.346 167.393 371.02 167.517 370.896 167.794C370.772 168.07 370.896 168.394 371.172 168.518C372.236 168.994 372.752 169.762 372.757 169.77C372.862 169.933 373.038 170.022 373.218 170.022Z" fill="#EA5143"/>
<path d="M359.831 185.26V196.804C359.831 196.804 356.388 202.683 351.731 203.083C347.081 203.488 342.948 198.021 342.948 198.021V186.071L359.831 185.26Z" fill="#FFA681"/>
<path d="M359.831 185.26V190.381C356.706 193.848 351.158 194.714 342.948 193.502V186.071L359.831 185.26Z" fill="#F97853"/>
<path d="M372.002 155.613C371.787 160.099 371.359 165.709 370.504 170.194C370.291 171.314 370.049 172.367 369.781 173.311C367.35 181.815 361.274 196.403 344.262 190.328C336.749 187.645 333.266 179.277 331.715 170.766C330.662 164.986 330.503 159.145 330.58 154.971C330.662 150.71 332.987 146.817 336.695 144.716C346.736 139.023 357.332 141.146 364.307 143.828C369.149 145.687 372.248 150.442 372.002 155.613Z" fill="#FFA681"/>
<path d="M343.762 165.038C343.762 166.271 343.127 167.269 342.343 167.269C341.56 167.269 340.925 166.271 340.925 165.038C340.925 163.806 341.56 162.807 342.343 162.807C343.127 162.807 343.762 163.806 343.762 165.038Z" fill="#18315B"/>
<path d="M360.482 164.993C360.482 166.226 359.846 167.224 359.063 167.224C358.28 167.224 357.644 166.226 357.644 164.993C357.644 163.761 358.28 162.762 359.063 162.762C359.846 162.762 360.482 163.761 360.482 164.993Z" fill="#18315B"/>
<path d="M363.687 157.325C363.687 157.325 359.212 155.555 355.765 157.044L356.11 158.962C356.11 158.962 361.168 158.533 363.716 159.566C363.945 158.828 363.978 158.083 363.687 157.325Z" fill="#18315B"/>
<path d="M337.61 157.325C337.61 157.325 342.085 155.555 345.531 157.044L345.188 158.962C345.188 158.962 340.13 158.533 337.581 159.566C337.352 158.828 337.319 158.083 337.61 157.325Z" fill="#18315B"/>
<path d="M351.246 174.39C352.172 174.39 353.09 174.03 353.232 173.972C353.511 173.857 353.645 173.537 353.532 173.257C353.418 172.977 353.097 172.842 352.817 172.956C352.322 173.157 351.133 173.473 350.618 173.165C350.518 173.104 350.382 172.987 350.347 172.653C350.149 170.739 350.673 164.319 350.679 164.255C350.704 163.953 350.479 163.689 350.178 163.664C349.875 163.638 349.612 163.863 349.587 164.165C349.565 164.433 349.048 170.75 349.257 172.766C349.335 173.526 349.734 173.914 350.054 174.106C350.406 174.316 350.827 174.39 351.246 174.39Z" fill="#F97853"/>
<path d="M343.882 177.175C344.794 180.338 347.385 183.495 350.956 183.539C354.522 183.495 357.113 180.338 358.025 177.175H343.882Z" fill="white"/>
<path d="M350.65 186.976C352.07 186.976 353.273 186.257 353.324 186.227C353.583 186.07 353.667 185.733 353.509 185.474C353.352 185.215 353.015 185.132 352.755 185.289C352.747 185.294 351.756 185.879 350.65 185.879C349.635 185.879 348.665 185.297 348.654 185.292C348.396 185.133 348.059 185.212 347.9 185.47C347.741 185.727 347.821 186.065 348.078 186.225C348.127 186.255 349.31 186.976 350.65 186.976Z" fill="#F97853"/>
<path d="M371.421 163.629H368.935C369.21 161.134 369.603 156.739 367.555 156.109C361.079 154.12 369.471 149.544 366.548 147.262C363.625 144.975 356.349 145.955 351.289 145.791C346.199 145.627 338.016 145.699 336.031 146.159C334.04 146.614 335.131 149.92 335.86 152.481C336.596 155.036 333.42 157.867 332.888 160.516C332.736 161.275 332.767 162.405 332.889 163.629H330.818C330.572 160.405 330.534 157.404 330.579 154.971C330.662 150.709 332.987 146.817 336.694 144.716C346.735 139.023 357.331 141.146 364.307 143.828C369.149 145.687 372.247 150.442 372.001 155.613C371.883 158.071 371.702 160.866 371.421 163.629Z" fill="#18315B"/>
<path d="M342.094 160.05C339.203 160.05 336.853 162.401 336.853 165.291C336.853 168.18 339.203 170.531 342.094 170.531C344.984 170.531 347.335 168.18 347.335 165.291C347.335 162.401 344.984 160.05 342.094 160.05ZM342.094 171.499C338.671 171.499 335.885 168.714 335.885 165.291C335.885 161.867 338.671 159.083 342.094 159.083C345.516 159.083 348.302 161.867 348.302 165.291C348.302 168.714 345.516 171.499 342.094 171.499Z" fill="white"/>
<path d="M359.063 160.05C356.172 160.05 353.822 162.401 353.822 165.291C353.822 168.18 356.172 170.531 359.063 170.531C361.952 170.531 364.303 168.18 364.303 165.291C364.303 162.401 361.952 160.05 359.063 160.05ZM359.063 171.499C355.639 171.499 352.854 168.714 352.854 165.291C352.854 161.867 355.639 159.083 359.063 159.083C362.485 159.083 365.271 161.867 365.271 165.291C365.271 168.714 362.485 171.499 359.063 171.499Z" fill="white"/>
<path d="M336.934 163.291C336.811 163.291 336.688 163.245 336.594 163.151C336.565 163.123 333.745 160.387 330.045 161.25C329.785 161.311 329.524 161.149 329.464 160.889C329.403 160.629 329.565 160.369 329.826 160.307C334.057 159.321 337.146 162.335 337.275 162.465C337.465 162.653 337.466 162.959 337.276 163.149C337.183 163.244 337.058 163.291 336.934 163.291Z" fill="white"/>
<path d="M364.337 163.291C364.178 163.291 364.024 163.214 363.931 163.071C363.785 162.849 363.847 162.549 364.072 162.402C364.256 162.281 368.649 159.447 372.388 160.063C372.651 160.107 372.83 160.355 372.787 160.619C372.744 160.883 372.496 161.061 372.231 161.018C368.866 160.464 364.643 163.186 364.6 163.212C364.518 163.266 364.428 163.291 364.337 163.291Z" fill="white"/>
<path d="M353.195 163.897C353.185 163.882 352.035 162.327 350.524 162.327C349.026 162.327 347.987 163.879 347.977 163.895L347.167 163.366C347.219 163.283 348.496 161.359 350.524 161.359C352.536 161.359 353.922 163.25 353.98 163.33L353.195 163.897Z" fill="white"/>
<path d="M316.243 253.276C316.243 253.276 309.704 265.939 302.002 275.971C299.729 278.931 297.358 281.659 295.021 283.767C291.234 287.186 287.542 288.974 284.534 287.457C273.381 281.834 248.514 237.083 248.514 237.083L254.638 229.82C254.638 229.82 265.705 242.601 273.799 250.249C281.263 257.301 287.002 262.574 287.002 262.574C288.035 261.002 289.137 259.279 290.281 257.455C291.498 255.518 292.761 253.469 294.046 251.361C303.366 236.06 313.707 217.691 313.707 217.691L316.243 253.276Z" fill="#FFA681"/>
<path d="M302.001 275.971C299.729 278.931 297.358 281.66 295.021 283.767L290.281 257.455C291.498 255.518 292.76 253.47 294.046 251.362L302.001 275.971Z" fill="#F97853"/>
<path d="M313.707 217.691L291.354 252.847L298.855 283.767L317.353 253.648C317.353 253.648 319.596 233.044 313.707 217.691Z" fill="#FBBA58"/>
<path d="M285.601 392.334C284.005 383.486 282.431 373.509 281.001 363.819C280.688 361.675 280.38 359.552 280.077 357.455C278.931 349.432 277.905 341.845 277.084 335.552C276.77 333.159 276.489 330.952 276.232 328.982C275.434 322.698 274.966 318.795 274.966 318.795L239.668 320.129L204.261 318.795C204.261 318.795 203.349 326.518 201.888 337.715C201.621 339.754 201.336 341.904 201.036 344.147C200.25 350.025 199.352 356.513 198.385 363.158C198.37 363.255 198.356 363.353 198.342 363.45C198.038 365.521 197.732 367.606 197.414 369.691C197.41 369.72 197.408 369.746 197.4 369.775V369.778C196.642 374.818 195.849 379.85 195.041 384.691C194.709 386.689 194.373 388.652 194.034 390.563C193.929 391.159 193.824 391.749 193.719 392.334H285.601Z" fill="#FBBA58"/>
<path d="M212.398 329.396C212.398 331.234 210.909 332.723 209.072 332.723C207.234 332.723 205.744 331.234 205.744 329.396C205.744 327.559 207.234 326.069 209.072 326.069C210.909 326.069 212.398 327.559 212.398 329.396Z" fill="#FBBA58"/>
<path d="M220.653 342.285C220.653 344.123 219.163 345.612 217.326 345.612C215.489 345.612 213.999 344.123 213.999 342.285C213.999 340.448 215.489 338.958 217.326 338.958C219.163 338.958 220.653 340.448 220.653 342.285Z" fill="#FBBA58"/>
<path d="M236.896 335.631C236.896 337.469 235.406 338.958 233.569 338.958C231.732 338.958 230.242 337.469 230.242 335.631C230.242 333.794 231.732 332.304 233.569 332.304C235.406 332.304 236.896 333.794 236.896 335.631Z" fill="#FBBA58"/>
<path d="M211.259 355.973C211.259 357.81 209.771 359.3 207.933 359.3C206.096 359.3 204.605 357.81 204.605 355.973C204.605 354.135 206.096 352.646 207.933 352.646C209.771 352.646 211.259 354.135 211.259 355.973Z" fill="#FBBA58"/>
<path d="M231.557 354.55C231.557 356.387 230.068 357.876 228.23 357.876C226.393 357.876 224.903 356.387 224.903 354.55C224.903 352.713 226.393 351.223 228.23 351.223C230.068 351.223 231.557 352.713 231.557 354.55Z" fill="#FBBA58"/>
<path d="M204.051 340.835C204.051 342.567 202.731 343.992 201.036 344.146C201.335 341.903 201.62 339.754 201.888 337.715C203.153 338.188 204.051 339.404 204.051 340.835Z" fill="#FBBA58"/>
<path d="M264.631 374.096C264.631 375.933 263.141 377.423 261.304 377.423C259.466 377.423 257.977 375.933 257.977 374.096C257.977 372.259 259.466 370.769 261.304 370.769C263.141 370.769 264.631 372.259 264.631 374.096Z" fill="#FBBA58"/>
<path d="M263.06 355.973C263.06 357.81 261.57 359.3 259.734 359.3C257.896 359.3 256.406 357.81 256.406 355.973C256.406 354.135 257.896 352.646 259.734 352.646C261.57 352.646 263.06 354.135 263.06 355.973Z" fill="#FBBA58"/>
<path d="M281 363.819C280.6 363.989 280.156 364.082 279.695 364.082C277.859 364.082 276.369 362.592 276.369 360.756C276.369 358.919 277.859 357.43 279.695 357.43C279.824 357.43 279.951 357.438 280.077 357.455C280.38 359.552 280.687 361.676 281 363.819Z" fill="#FBBA58"/>
<path d="M266.386 387.377C266.386 389.215 264.896 390.705 263.059 390.705C261.221 390.705 259.732 389.215 259.732 387.377C259.732 385.54 261.221 384.051 263.059 384.051C264.896 384.051 266.386 385.54 266.386 387.377Z" fill="#FBBA58"/>
<path d="M280.618 382.066C280.618 383.903 279.128 385.393 277.29 385.393C275.453 385.393 273.963 383.903 273.963 382.066C273.963 380.229 275.453 378.739 277.29 378.739C279.128 378.739 280.618 380.229 280.618 382.066Z" fill="#FBBA58"/>
<path d="M251.006 392.334C250.408 391.459 249.405 390.883 248.264 390.883C247.124 390.883 246.121 391.459 245.522 392.334H251.006Z" fill="#FBBA58"/>
<path d="M209.071 376.988C209.071 378.825 207.581 380.315 205.743 380.315C203.907 380.315 202.417 378.825 202.417 376.988C202.417 375.152 203.907 373.662 205.743 373.662C207.581 373.662 209.071 375.152 209.071 376.988Z" fill="#FBBA58"/>
<path d="M200.293 366.48C200.293 368.169 199.035 369.564 197.4 369.775C197.408 369.745 197.411 369.72 197.414 369.691C197.732 367.606 198.038 365.521 198.342 363.45C199.493 363.977 200.293 365.135 200.293 366.48Z" fill="#FBBA58"/>
<path d="M196.404 387.374C196.404 388.879 195.405 390.149 194.034 390.563C194.373 388.652 194.709 386.689 195.041 384.691C195.867 385.297 196.404 386.274 196.404 387.374Z" fill="#FBBA58"/>
<path d="M217.327 388.782C217.327 390.619 215.837 392.109 213.999 392.109C212.163 392.109 210.673 390.619 210.673 388.782C210.673 386.944 212.163 385.455 213.999 385.455C215.837 385.455 217.327 386.944 217.327 388.782Z" fill="#FBBA58"/>
<path d="M234.883 386.177C234.883 388.015 233.393 389.505 231.555 389.505C229.719 389.505 228.229 388.015 228.229 386.177C228.229 384.34 229.719 382.851 231.555 382.851C233.393 382.851 234.883 384.34 234.883 386.177Z" fill="#FBBA58"/>
<path d="M222.358 369.82C222.358 371.657 220.869 373.147 219.031 373.147C217.194 373.147 215.704 371.657 215.704 369.82C215.704 367.982 217.194 366.492 219.031 366.492C220.869 366.492 222.358 367.982 222.358 369.82Z" fill="#FBBA58"/>
<path d="M240.223 366.493C240.223 368.331 238.734 369.821 236.896 369.821C235.059 369.821 233.569 368.331 233.569 366.493C233.569 364.657 235.059 363.167 236.896 363.167C238.734 363.167 240.223 364.657 240.223 366.493Z" fill="#FBBA58"/>
<path d="M248.264 348.938C248.264 350.775 246.775 352.265 244.937 352.265C243.1 352.265 241.61 350.775 241.61 348.938C241.61 347.1 243.1 345.611 244.937 345.611C246.775 345.611 248.264 347.1 248.264 348.938Z" fill="#FBBA58"/>
<path d="M277.084 335.551C276.852 335.605 276.614 335.63 276.369 335.63C274.529 335.63 273.043 334.139 273.043 332.304C273.043 330.514 274.457 329.05 276.232 328.981C276.488 330.951 276.77 333.159 277.084 335.551Z" fill="#FBBA58"/>
<path d="M259.733 335.631C259.733 337.469 258.243 338.958 256.406 338.958C254.569 338.958 253.079 337.469 253.079 335.631C253.079 333.794 254.569 332.304 256.406 332.304C258.243 332.304 259.733 333.794 259.733 335.631Z" fill="#FBBA58"/>
<path d="M271.918 347.488C271.918 349.325 270.428 350.815 268.591 350.815C266.753 350.815 265.263 349.325 265.263 347.488C265.263 345.651 266.753 344.161 268.591 344.161C270.428 344.161 271.918 345.651 271.918 347.488Z" fill="#FBBA58"/>
<path d="M251.591 376.988C251.591 378.825 250.101 380.315 248.263 380.315C246.426 380.315 244.937 378.825 244.937 376.988C244.937 375.152 246.426 373.662 248.263 373.662C250.101 373.662 251.591 375.152 251.591 376.988Z" fill="#FBBA58"/>
<path d="M277.112 319.667C258.491 331.824 224.3 330.872 202.815 319.667C204.868 306.883 207.57 294.084 206.989 277.067C206.924 275.203 206.844 273.348 206.751 271.513C206.668 269.914 206.574 268.328 206.473 266.758C204.619 238.45 199.788 215.306 202.162 212.315C203.197 211.006 204.925 209.592 207.057 208.145C207.894 207.575 208.789 206.998 209.734 206.421C211.963 205.061 214.442 203.69 216.931 202.355C222.836 199.203 228.831 196.277 231.836 194.279C234.816 195.577 237.19 196.287 239.747 196.274C239.815 196.274 239.891 196.274 239.967 196.266C240.035 196.274 240.112 196.274 240.18 196.274C242.738 196.287 245.111 195.577 248.094 194.279C250.883 196.133 256.133 198.719 261.489 201.54C265.424 203.614 269.418 205.815 272.527 207.95C274.563 209.347 276.224 210.717 277.242 212.002C278.418 213.485 277.925 219.985 276.918 229.617C275.922 239.093 274.432 251.607 273.531 265.362C273.281 269.182 273.076 273.096 272.938 277.067C272.361 294.084 275.059 306.883 277.112 319.667Z" fill="#C467AF"/>
<path d="M265.725 305.53H265.722C250.727 305.464 237.927 298.641 229.831 292.928C221.075 286.75 215.768 280.49 215.716 280.427C215.459 280.122 215.499 279.667 215.804 279.411C216.108 279.154 216.564 279.193 216.82 279.498C216.871 279.559 222.081 285.701 230.696 291.772C238.616 297.354 251.123 304.023 265.728 304.087C266.126 304.089 266.449 304.413 266.447 304.811C266.445 305.209 266.121 305.53 265.725 305.53Z" fill="#FBBA58"/>
<path d="M255.798 296.8C243.03 294.291 231.729 284.512 231.216 284.063C230.915 283.801 230.885 283.345 231.147 283.045C231.41 282.745 231.865 282.716 232.165 282.977C232.298 283.093 245.598 294.593 259.15 295.83C259.553 295.862 259.839 296.217 259.804 296.614C259.767 297.01 259.417 297.303 259.018 297.267C257.938 297.169 256.862 297.009 255.798 296.8Z" fill="#FBBA58"/>
<path d="M236.895 230.746C236.555 230.746 236.253 230.505 236.188 230.158C236.113 229.766 236.37 229.389 236.762 229.315C255.043 225.846 260.554 214.086 260.606 213.967C260.77 213.604 261.198 213.443 261.562 213.607C261.924 213.771 262.086 214.198 261.922 214.561C261.69 215.073 256.042 227.125 237.031 230.732C236.986 230.742 236.939 230.746 236.895 230.746Z" fill="#C467AF"/>
<path d="M261.488 201.541C257.86 209.818 248.939 218.389 237.338 216.385C226.105 214.444 220.776 208.501 216.931 202.356C222.838 199.202 228.832 196.28 231.836 194.28C234.817 195.577 237.19 196.287 239.747 196.276C239.816 196.276 239.892 196.276 239.966 196.268C240.035 196.276 240.113 196.276 240.182 196.276C242.738 196.287 245.112 195.577 248.097 194.28C250.883 196.133 256.134 198.72 261.488 201.541Z" fill="#FFA681"/>
<path d="M251.789 194.886C251.469 194.882 251.213 195.139 251.211 195.456C251.209 195.921 251.018 206.862 241.198 207.709C232.088 208.501 228.316 199.781 227.152 196.163C227.084 195.95 226.888 195.808 226.664 195.808H226.557C226.206 195.808 225.959 196.15 226.069 196.482C227.311 200.215 231.283 209.228 240.563 208.898C240.804 208.888 241.049 208.874 241.296 208.853C252.166 207.915 252.359 195.586 252.36 195.463C252.362 195.146 252.106 194.888 251.789 194.886Z" fill="white"/>
<path d="M258.733 136.733C258.733 136.733 267.511 150.328 266.549 164.489C265.587 178.65 267.842 194.998 255.171 194.279C242.499 193.561 219.897 199.359 212.713 188.331C205.529 177.3 258.733 136.733 258.733 136.733Z" fill="#18315B"/>
<path d="M261.985 161.731C261.985 161.731 264.263 182.258 254.524 187.91C244.783 193.562 237.733 187.252 237.733 187.252C237.733 187.252 258.264 158.64 261.985 161.731Z" fill="#000B29"/>
<path d="M221.527 161.636C221.527 161.636 218.029 156.973 215.429 160.829C212.828 164.685 216.505 176.074 222.871 173.294L221.527 161.636Z" fill="#F97853"/>
<path d="M221.481 169.774C221.246 169.774 221.03 169.619 220.963 169.381C219.977 165.865 216.334 164.439 216.297 164.426C216.02 164.319 215.881 164.009 215.985 163.732C216.091 163.454 216.401 163.314 216.679 163.419C216.849 163.483 220.863 165.041 222 169.091C222.08 169.377 221.913 169.674 221.626 169.754C221.578 169.767 221.529 169.774 221.481 169.774Z" fill="#EA5143"/>
<path d="M217.804 168.003C217.704 168.003 217.603 167.975 217.513 167.917C217.263 167.756 217.191 167.423 217.351 167.173C217.378 167.132 218.023 166.149 219.371 165.545C219.641 165.423 219.961 165.545 220.083 165.817C220.204 166.089 220.083 166.406 219.811 166.527C218.768 166.995 218.262 167.748 218.257 167.756C218.154 167.916 217.98 168.003 217.804 168.003Z" fill="#EA5143"/>
<path d="M257.57 161.636C257.57 161.636 261.067 156.973 263.667 160.829C266.268 164.685 262.591 176.074 256.225 173.294L257.57 161.636Z" fill="#F97853"/>
<path d="M257.615 169.774C257.85 169.774 258.066 169.619 258.132 169.381C259.119 165.865 262.761 164.439 262.799 164.426C263.075 164.319 263.216 164.009 263.111 163.732C263.005 163.454 262.695 163.314 262.418 163.419C262.247 163.483 258.233 165.041 257.097 169.091C257.017 169.377 257.184 169.674 257.47 169.754C257.518 169.767 257.567 169.774 257.615 169.774Z" fill="#EA5143"/>
<path d="M261.292 168.003C261.392 168.003 261.492 167.975 261.583 167.917C261.832 167.756 261.905 167.423 261.744 167.173C261.717 167.132 261.072 166.149 259.724 165.545C259.454 165.423 259.135 165.545 259.014 165.817C258.893 166.089 259.014 166.406 259.284 166.527C260.328 166.995 260.834 167.748 260.839 167.756C260.942 167.916 261.115 168.003 261.292 168.003Z" fill="#EA5143"/>
<path d="M248.157 182.954V194.28C248.157 194.28 244.779 200.049 240.212 200.44C235.648 200.839 231.593 195.474 231.593 195.474V183.75L248.157 182.954Z" fill="#FFA681"/>
<path d="M248.157 182.954V187.979C245.093 191.381 239.651 192.586 231.595 191.396L231.593 183.75L248.157 182.954Z" fill="#F97853"/>
<path d="M260.097 153.866C259.888 158.267 259.468 163.771 258.628 168.173C258.419 169.27 258.182 170.304 257.918 171.229C255.534 179.575 249.573 193.886 232.882 187.926C225.511 185.294 222.095 177.083 220.571 168.732C219.538 163.062 219.383 157.33 219.458 153.236C219.538 149.055 221.819 145.235 225.458 143.174C235.309 137.589 245.705 139.671 252.549 142.303C257.3 144.127 260.34 148.792 260.097 153.866Z" fill="#FFA681"/>
<path d="M232.198 162.3C232.198 163.509 231.575 164.489 230.806 164.489C230.038 164.489 229.415 163.509 229.415 162.3C229.415 161.092 230.038 160.112 230.806 160.112C231.575 160.112 232.198 161.092 232.198 162.3Z" fill="#18315B"/>
<path d="M249.384 162.3C249.384 163.509 248.761 164.489 247.992 164.489C247.224 164.489 246.601 163.509 246.601 162.3C246.601 161.092 247.224 160.112 247.992 160.112C248.761 160.112 249.384 161.092 249.384 162.3Z" fill="#18315B"/>
<path d="M228.049 155.783C229.206 155.457 231.539 154.899 234.003 154.891C234.651 154.889 235.147 155.465 235.032 156.104L235.029 156.12C234.938 156.629 234.483 156.99 233.965 156.965C232.289 156.887 227.89 157.123 225.813 157.964C225.771 157.603 225.985 157.208 226.287 156.857C226.745 156.325 227.373 155.974 228.049 155.783Z" fill="#18315B"/>
<path d="M250.537 155.828C249.381 155.502 247.046 154.943 244.584 154.936C243.935 154.934 243.439 155.51 243.554 156.148L243.557 156.165C243.648 156.674 244.104 157.034 244.62 157.01C246.297 156.932 250.695 157.168 252.773 158.009C252.815 157.648 252.601 157.253 252.299 156.902C251.841 156.37 251.213 156.019 250.537 155.828Z" fill="#18315B"/>
<path d="M239.735 172.288C239.323 172.288 238.909 172.215 238.564 172.009C238.25 171.821 237.859 171.44 237.782 170.696C237.577 168.718 238.083 162.519 238.105 162.256C238.129 161.96 238.389 161.739 238.685 161.764C238.982 161.788 239.202 162.048 239.178 162.345C239.173 162.408 238.657 168.706 238.852 170.585C238.886 170.912 239.019 171.028 239.117 171.085C239.622 171.389 240.79 171.079 241.275 170.882C241.55 170.769 241.865 170.902 241.976 171.177C242.089 171.452 241.957 171.766 241.682 171.878C241.542 171.935 240.642 172.288 239.735 172.288Z" fill="#F97853"/>
<path d="M232.901 175.686C233.308 177.732 234.66 181.498 239.215 181.498C243.781 181.498 245.062 178.057 245.501 175.686H232.901Z" fill="white"/>
<path d="M239.15 184.638C237.836 184.638 236.675 183.93 236.627 183.9C236.373 183.744 236.295 183.412 236.452 183.159C236.607 182.907 236.938 182.829 237.191 182.984C237.201 182.989 238.148 183.562 239.15 183.562C240.235 183.562 241.207 182.988 241.217 182.981C241.472 182.829 241.802 182.911 241.955 183.165C242.108 183.419 242.028 183.749 241.773 183.902C241.723 183.933 240.543 184.638 239.15 184.638Z" fill="#F97853"/>
<path d="M262.264 152.989C262.09 153.48 261.611 153.794 260.969 153.981C261.016 155.169 260.891 156.595 260.774 157.964C260.111 165.74 258.148 167.106 257.705 165.183C257.412 163.907 257.43 156.583 257.57 154.194C256.034 154.093 254.721 153.837 254.721 153.837L252.917 146.287L252.286 153.743C249.58 154.685 243.267 153.177 243.267 153.177L241.151 145.735L239.841 152.895C235.782 154.872 230.711 153.556 230.711 153.556L229.545 145.832L226.854 153.556C226.854 153.556 218.196 156.661 218.103 153.556C218.044 151.748 219.368 146.658 220.487 142.715C221.706 138.416 224.531 134.783 228.351 132.733C239.09 126.97 250.446 130.036 254.342 132.363C262.604 137.293 262.264 152.989 262.264 152.989Z" fill="#18315B"/>
<path d="M222.872 137.308C222.872 137.308 215.744 145.785 213.399 160.926C211.055 176.066 207.808 187.252 216.931 192.25C226.806 197.662 225.95 186.564 225.808 183.548C225.666 180.533 217.267 172.288 222.872 149.07C224.681 141.574 222.872 137.308 222.872 137.308Z" fill="#18315B"/>
<path d="M221.206 168.594V168.612C221.209 168.724 221.217 169.327 221.26 170.268C221.282 170.853 221.317 171.564 221.372 172.372C221.707 177.472 222.7 186.281 225.614 189.337C226.765 190.546 228.983 191.151 231.595 191.396V187.389C228.843 186.083 226.696 183.936 225.034 181.296C224.005 179.071 222.234 175.586 221.405 170.106L221.206 168.594Z" fill="#000B29"/>
<path d="M260.227 173.549C260.227 174.246 259.662 174.809 258.967 174.809C258.27 174.809 257.705 174.246 257.705 173.549C257.705 172.853 258.27 172.288 258.967 172.288C259.662 172.288 260.227 172.853 260.227 173.549Z" fill="white"/>
<path d="M285.916 268.514C282.346 278.736 266.354 277.992 248.141 272.404C248.115 272.396 248.089 272.387 248.063 272.379C248.005 272.363 247.95 272.343 247.893 272.327L245.387 271.528C245.042 271.414 244.694 271.3 244.348 271.182C242.385 270.525 240.409 269.814 238.423 269.06C231.916 266.589 225.358 263.659 219.174 260.534L219.217 260.427L221.079 255.589L221.715 253.943C221.715 253.943 255.48 257.622 272.456 254.073C272.745 254.013 273.026 253.953 273.301 253.888C273.235 253.511 273.214 253.127 273.107 252.768C264.112 222.144 273.95 216.273 277.242 212.001C277.242 212.001 292.657 249.216 285.916 268.514Z" fill="#C467AF"/>
<path d="M280.415 259.036C280.315 259.084 280.206 259.107 280.101 259.107C279.835 259.107 279.578 258.959 279.453 258.704C278.167 256.069 273.799 254.502 272.458 254.073C272.746 254.013 273.027 253.953 273.302 253.888C273.235 253.511 273.171 253.137 273.108 252.768C274.814 253.331 279.271 255.05 280.746 258.073C280.921 258.428 280.772 258.86 280.415 259.036Z" fill="#FBBA58"/>
<path d="M233.124 257.752C226.233 257.752 220.637 257.357 220.149 257.321C219.753 257.292 219.455 256.947 219.484 256.55C219.513 256.154 219.857 255.858 220.254 255.885C220.508 255.902 245.836 257.695 255.823 253.644C256.189 253.495 256.61 253.671 256.76 254.041C256.909 254.409 256.732 254.828 256.363 254.978C250.836 257.219 241.11 257.752 233.124 257.752Z" fill="#FBBA58"/>
<path d="M245.387 271.528H245.389C251.167 269.935 256.42 268.382 259.453 267.41C263.665 266.059 267.149 261.802 268.732 258.184C268.891 257.819 269.316 257.653 269.681 257.815C270.046 257.973 270.211 258.397 270.052 258.762C268.339 262.675 264.533 267.293 259.893 268.784C257.692 269.489 254.33 270.496 250.444 271.605C248.788 272.078 247.028 272.051 245.387 271.528Z" fill="#FBBA58"/>
<path d="M260.963 266.578C208.782 284.153 192.728 272.651 192.728 272.651C189.216 240.883 202.161 212.315 202.161 212.315C205.986 218.622 210.31 229.629 210.31 229.629L211.452 253.979L211.366 254.656L211.325 254.976L211.11 256.641L211.104 256.675C211.215 256.698 211.327 256.722 211.441 256.747C227.225 260.077 256.092 256.355 256.092 256.355L260.963 266.578Z" fill="#C467AF"/>
<path d="M211.441 256.746C208.623 259.107 205.947 261.828 203.563 264.955C203.323 265.272 202.87 265.333 202.553 265.091C202.236 264.851 202.176 264.401 202.414 264.084C202.416 264.084 202.416 264.082 202.416 264.082C205.096 260.561 208.134 257.548 211.325 254.975L211.109 256.641L211.105 256.674C211.215 256.697 211.328 256.722 211.441 256.746Z" fill="#FBBA58"/>
<path d="M256.092 256.355C256.092 256.355 261.871 243.232 270.653 244.401L273.302 253.889C268.494 255.93 267.791 264.175 260.964 266.577L256.092 256.355Z" fill="#FFA681"/>
<path d="M221.716 253.943C221.716 253.943 218.068 245.38 208.466 242.893C198.866 240.408 192.748 244.932 192.103 246.64C191.459 248.348 195.724 246.716 195.724 246.716C195.724 246.716 192.946 247.502 191.353 250.113C189.759 252.723 195.232 249.907 195.232 249.907C195.232 249.907 191.307 251.626 190.808 253.221C190.309 254.816 195.485 252.122 196.459 252.173C196.459 252.173 191.836 254.01 191.868 255.656C191.899 257.301 197.177 254.618 201.119 254.83C205.06 255.043 211.104 256.675 211.104 256.675C214.329 257.289 217.412 257.743 220.201 257.872L221.716 253.943Z" fill="#FFA681"/>
<path d="M314.433 109.93C311.994 109.93 310.011 111.914 310.011 114.353C310.011 116.792 311.994 118.776 314.433 118.776C316.872 118.776 318.856 116.792 318.856 114.353C318.856 111.914 316.872 109.93 314.433 109.93ZM314.433 120.798C310.879 120.798 307.988 117.907 307.988 114.353C307.988 110.799 310.879 107.908 314.433 107.908C317.987 107.908 320.879 110.799 320.879 114.353C320.879 117.907 317.987 120.798 314.433 120.798Z" fill="#FBBA58"/>
<path d="M370.665 98.9788C368.226 98.9788 366.242 100.963 366.242 103.402C366.242 105.841 368.226 107.825 370.665 107.825C373.104 107.825 375.088 105.841 375.088 103.402C375.088 100.963 373.104 98.9788 370.665 98.9788ZM370.665 109.847C367.111 109.847 364.22 106.956 364.22 103.402C364.22 99.8485 367.111 96.957 370.665 96.957C374.219 96.957 377.111 99.8485 377.111 103.402C377.111 106.956 374.219 109.847 370.665 109.847Z" fill="#009CF8"/>
<path d="M378.629 130.792C378.071 130.792 377.618 130.339 377.618 129.781V125.322C377.618 124.764 378.071 124.311 378.629 124.311C379.186 124.311 379.639 124.764 379.639 125.322V129.781C379.639 130.339 379.186 130.792 378.629 130.792Z" fill="#FBBA58"/>
<path d="M378.629 138.594C378.071 138.594 377.618 138.141 377.618 137.583V133.124C377.618 132.566 378.071 132.114 378.629 132.114C379.186 132.114 379.639 132.566 379.639 133.124V137.583C379.639 138.141 379.186 138.594 378.629 138.594Z" fill="#FBBA58"/>
<path d="M384.887 132.464H380.881C380.324 132.464 379.871 132.011 379.871 131.453C379.871 130.894 380.324 130.442 380.881 130.442H384.887C385.445 130.442 385.898 130.894 385.898 131.453C385.898 132.011 385.445 132.464 384.887 132.464Z" fill="#FBBA58"/>
<path d="M376.376 132.464H372.371C371.812 132.464 371.359 132.011 371.359 131.453C371.359 130.894 371.812 130.442 372.371 130.442H376.376C376.934 130.442 377.387 130.894 377.387 131.453C377.387 132.011 376.934 132.464 376.376 132.464Z" fill="#FBBA58"/>
<path d="M344.585 103.783C344.027 103.783 343.574 103.329 343.574 102.772V98.3125C343.574 97.7548 344.027 97.3026 344.585 97.3026C345.144 97.3026 345.596 97.7548 345.596 98.3125V102.772C345.596 103.329 345.144 103.783 344.585 103.783Z" fill="#1C31B5"/>
<path d="M344.585 111.585C344.027 111.585 343.574 111.131 343.574 110.574V106.115C343.574 105.557 344.027 105.105 344.585 105.105C345.144 105.105 345.596 105.557 345.596 106.115V110.574C345.596 111.131 345.144 111.585 344.585 111.585Z" fill="#1C31B5"/>
<path d="M350.843 105.455H346.838C346.28 105.455 345.827 105.002 345.827 104.444C345.827 103.885 346.28 103.433 346.838 103.433H350.843C351.402 103.433 351.855 103.885 351.855 104.444C351.855 105.002 351.402 105.455 350.843 105.455Z" fill="#1C31B5"/>
<path d="M342.333 105.455H338.328C337.769 105.455 337.316 105.002 337.316 104.444C337.316 103.885 337.769 103.433 338.328 103.433H342.333C342.891 103.433 343.344 103.885 343.344 104.444C343.344 105.002 342.891 105.455 342.333 105.455Z" fill="#1C31B5"/>
<path d="M86.0877 97.9987C86.0877 100.438 88.072 102.421 90.5104 102.421C92.9498 102.421 94.9341 100.438 94.9341 97.9987C94.9341 95.5588 92.9498 93.5755 90.5104 93.5755C88.072 93.5755 86.0877 95.5588 86.0877 97.9987ZM84.0659 97.9987C84.0659 94.4443 86.9565 91.5527 90.5104 91.5527C94.0643 91.5527 96.956 94.4443 96.956 97.9987C96.956 101.553 94.0643 104.444 90.5104 104.444C86.9565 104.444 84.0659 101.553 84.0659 97.9987Z" fill="#FBBA58"/>
<path d="M60.2044 122.565C60.2044 125.004 62.1887 126.988 64.6271 126.988C67.0665 126.988 69.0508 125.004 69.0508 122.565C69.0508 120.126 67.0665 118.142 64.6271 118.142C62.1887 118.142 60.2044 120.126 60.2044 122.565ZM58.1826 122.565C58.1826 119.011 61.0741 116.12 64.6271 116.12C68.181 116.12 71.0725 119.011 71.0725 122.565C71.0725 126.119 68.181 129.011 64.6271 129.011C61.0741 129.011 58.1826 126.119 58.1826 122.565Z" fill="#009CF8"/>
<path d="M44.7824 131.609C45.3411 131.609 45.7932 131.157 45.7932 130.598V126.14C45.7932 125.581 45.3411 125.129 44.7824 125.129C44.2236 125.129 43.7715 125.581 43.7715 126.14V130.598C43.7715 131.157 44.2236 131.609 44.7824 131.609Z" fill="#FBBA58"/>
<path d="M44.7824 139.412C45.3411 139.412 45.7932 138.96 45.7932 138.401V133.943C45.7932 133.384 45.3411 132.932 44.7824 132.932C44.2236 132.932 43.7715 133.384 43.7715 133.943V138.401C43.7715 138.96 44.2236 139.412 44.7824 139.412Z" fill="#FBBA58"/>
<path d="M38.5241 133.282H42.5292C43.0869 133.282 43.5401 132.828 43.5401 132.271C43.5401 131.712 43.0869 131.26 42.5292 131.26H38.5241C37.9653 131.26 37.5132 131.712 37.5132 132.271C37.5132 132.828 37.9653 133.282 38.5241 133.282Z" fill="#FBBA58"/>
<path d="M47.0353 133.282H51.0404C51.5991 133.282 52.0513 132.828 52.0513 132.271C52.0513 131.712 51.5991 131.26 51.0404 131.26H47.0353C46.4766 131.26 46.0244 131.712 46.0244 132.271C46.0244 132.828 46.4766 133.282 47.0353 133.282Z" fill="#FBBA58"/>
<path d="M68.0783 97.3372C68.636 97.3372 69.0891 96.8841 69.0891 96.3263V91.8682C69.0891 91.3095 68.636 90.8573 68.0783 90.8573C67.5195 90.8573 67.0674 91.3095 67.0674 91.8682V96.3263C67.0674 96.8841 67.5195 97.3372 68.0783 97.3372Z" fill="#1C31B5"/>
<path d="M68.0783 105.14C68.636 105.14 69.0891 104.687 69.0891 104.129V99.671C69.0891 99.1123 68.636 98.6602 68.0783 98.6602C67.5195 98.6602 67.0674 99.1123 67.0674 99.671V104.129C67.0674 104.687 67.5195 105.14 68.0783 105.14Z" fill="#1C31B5"/>
<path d="M61.82 99.0096H65.8251C66.3828 99.0096 66.836 98.5564 66.836 97.9987C66.836 97.44 66.3828 96.9878 65.8251 96.9878H61.82C61.2612 96.9878 60.8091 97.44 60.8091 97.9987C60.8091 98.5564 61.2612 99.0096 61.82 99.0096Z" fill="#1C31B5"/>
<path d="M70.3312 99.0096H74.3363C74.8941 99.0096 75.3472 98.5564 75.3472 97.9987C75.3472 97.44 74.8941 96.9878 74.3363 96.9878H70.3312C69.7725 96.9878 69.3203 97.44 69.3203 97.9987C69.3203 98.5564 69.7725 99.0096 70.3312 99.0096Z" fill="#1C31B5"/>
<path d="M260.822 98.4614C260.706 98.4739 260.585 98.4576 260.469 98.4086C259.242 97.8912 258.522 97.6493 258.515 97.6474C258.139 97.5216 257.936 97.1155 258.061 96.7392C258.188 96.3629 258.594 96.1603 258.969 96.2851C259.001 96.2957 259.742 96.5443 261.027 97.0858C261.392 97.2403 261.563 97.6618 261.409 98.0266C261.304 98.2762 261.075 98.4355 260.822 98.4614Z" fill="#BBE2F2"/>
<path d="M297.407 136.965C297.896 138.268 298.353 139.611 298.766 140.958C298.869 141.291 299.193 141.496 299.528 141.461C299.573 141.456 299.619 141.446 299.664 141.433C300.042 141.317 300.256 140.914 300.139 140.536C299.717 139.161 299.25 137.791 298.752 136.461C298.613 136.09 298.201 135.902 297.828 136.042C297.457 136.181 297.268 136.593 297.407 136.965Z" fill="#BBE2F2"/>
<path d="M299.884 145.025C300.214 146.374 300.511 147.763 300.769 149.152C300.837 149.524 301.18 149.774 301.549 149.736C301.567 149.733 301.586 149.731 301.606 149.727C301.995 149.655 302.253 149.281 302.181 148.891C301.918 147.475 301.615 146.06 301.279 144.685C301.185 144.3 300.796 144.064 300.412 144.158C300.026 144.251 299.79 144.64 299.884 145.025Z" fill="#BBE2F2"/>
<path d="M302.912 166.704C303.269 166.666 303.548 166.368 303.554 166.001C303.576 164.561 303.566 163.115 303.523 161.705C303.511 161.309 303.179 160.998 302.784 161.009C302.382 161.024 302.076 161.353 302.089 161.748C302.13 163.138 302.14 164.561 302.119 165.979C302.113 166.376 302.429 166.702 302.825 166.708C302.854 166.709 302.884 166.707 302.912 166.704Z" fill="#BBE2F2"/>
<path d="M302.044 152.518C301.65 152.569 301.373 152.93 301.423 153.323C301.508 153.971 301.585 154.627 301.653 155.271C301.732 156.015 301.802 156.774 301.861 157.526C301.891 157.921 302.237 158.217 302.632 158.186C302.639 158.185 302.646 158.184 302.652 158.184C303.037 158.143 303.322 157.802 303.292 157.414C303.231 156.648 303.161 155.877 303.08 155.121C303.012 154.465 302.934 153.798 302.847 153.137C302.797 152.75 302.447 152.476 302.061 152.516C302.055 152.517 302.048 152.517 302.044 152.518Z" fill="#BBE2F2"/>
<path d="M295.806 133.065C295.936 133.356 296.236 133.518 296.536 133.485C296.61 133.478 296.683 133.459 296.754 133.427C297.116 133.264 297.278 132.841 297.116 132.479C296.531 131.171 295.899 129.868 295.234 128.604C295.049 128.254 294.616 128.119 294.265 128.304C293.914 128.488 293.779 128.922 293.963 129.273C294.613 130.509 295.233 131.785 295.806 133.065Z" fill="#BBE2F2"/>
<path d="M264.281 100.193C265.514 100.823 266.758 101.508 267.98 102.232C268.117 102.313 268.271 102.344 268.42 102.328C268.637 102.305 268.842 102.182 268.963 101.98C269.164 101.638 269.052 101.198 268.71 100.996C267.463 100.258 266.193 99.5577 264.935 98.9145C264.581 98.734 264.148 98.8741 263.969 99.2274C263.788 99.5797 263.929 100.013 264.281 100.193Z" fill="#BBE2F2"/>
<path d="M274.978 106.953C275.13 107.069 275.314 107.114 275.49 107.096C275.679 107.076 275.861 106.981 275.985 106.817C276.225 106.502 276.165 106.052 275.85 105.812C274.713 104.944 273.536 104.099 272.352 103.299C272.022 103.078 271.577 103.164 271.355 103.493C271.133 103.821 271.22 104.268 271.549 104.489C272.711 105.273 273.865 106.102 274.978 106.953Z" fill="#BBE2F2"/>
<path d="M287.041 118.706C287.2 118.905 287.443 118.996 287.678 118.971C287.809 118.957 287.94 118.907 288.05 118.817C288.36 118.57 288.41 118.118 288.162 117.808C287.27 116.695 286.329 115.592 285.366 114.532C285.099 114.238 284.645 114.216 284.352 114.484C284.059 114.75 284.037 115.204 284.303 115.498C285.247 116.535 286.168 117.615 287.041 118.706Z" fill="#BBE2F2"/>
<path d="M281.371 112.464C281.53 112.619 281.744 112.685 281.948 112.664C282.109 112.646 282.265 112.575 282.387 112.45C282.663 112.165 282.657 111.711 282.372 111.435C281.351 110.441 280.282 109.463 279.195 108.525C278.895 108.266 278.441 108.3 278.184 108.601C277.924 108.901 277.957 109.355 278.259 109.613C279.323 110.531 280.371 111.491 281.371 112.464Z" fill="#BBE2F2"/>
<path d="M291.883 125.606C292.032 125.851 292.305 125.975 292.572 125.946C292.674 125.936 292.776 125.903 292.87 125.845C293.209 125.639 293.315 125.196 293.108 124.859C292.363 123.638 291.569 122.426 290.748 121.255C290.521 120.93 290.074 120.852 289.748 121.079C289.423 121.308 289.345 121.755 289.573 122.079C290.377 123.226 291.154 124.412 291.883 125.606Z" fill="#BBE2F2"/>
<path d="M260.808 93.5502L263.949 81.9141L225.456 82.2453L260.808 93.5502Z" fill="#009CF8"/>
<path d="M225.456 82.244L258.94 96.359L259.028 96.3974L260.468 98.784L260.808 93.5499L225.456 82.244Z" fill="#006BDE"/>
<path d="M260.468 98.783L257.347 98.2906L259.028 96.3965L260.468 98.783Z" fill="#006BDE"/>
<path d="M254.816 94.621L259.03 96.3974L250.352 106.175L225.456 82.2456L254.816 94.621Z" fill="#009CF8"/>
<path d="M437.814 399.66V400.361C437.814 404.407 434.532 407.688 430.484 407.688H50.3736C46.3262 407.688 43.0479 404.407 43.0479 400.361V399.66C43.0479 395.615 46.3262 392.333 50.3736 392.333H430.484C434.532 392.333 437.814 395.615 437.814 399.66Z" fill="#1C31B5"/>
<path d="M437.814 399.66V400.011H43.0479V399.66C43.0479 395.615 46.3262 392.333 50.3736 392.333H430.484C434.532 392.333 437.814 395.615 437.814 399.66Z" fill="#FBBA58"/>
<path d="M298.602 369.284H179.193C176.339 369.284 174.026 366.971 174.026 364.118V301.644C174.026 298.791 176.339 296.479 179.193 296.479H298.602C301.455 296.479 303.768 298.791 303.768 301.644V364.118C303.768 366.971 301.455 369.284 298.602 369.284Z" fill="#18315B"/>
<path d="M248.943 392.107H228.85V369.202H248.943V392.107Z" fill="#000B29"/>
<path d="M248.646 333.774C248.646 339.281 244.181 343.747 238.673 343.747C233.166 343.747 228.701 339.281 228.701 333.774C228.701 328.267 233.166 323.801 238.673 323.801C244.181 323.801 248.646 328.267 248.646 333.774Z" fill="#1D567E"/>
<path d="M264.491 392.107H212.662V390.361C212.662 386.838 215.518 383.981 219.041 383.981H258.11C261.634 383.981 264.491 386.838 264.491 390.361V392.107Z" fill="#18315B"/>
</g>
</svg>
